<svg xmlns="http://www.w3.org/2000/svg" viewBox="0 0 70.1 70.1"><defs><style>.cls-1{fill:#fffffa;stroke:#f9f6ed;stroke-miterlimit:10;}.cls-2{fill:#f9f6ed;}</style></defs><title>x</title><g id="x"><path class="cls-1" d="M4.65,5.13l0,0a9.9,9.9,0,0,1,14,0L35,21.38,52.12,4.24a9.9,9.9,0,0,1,14,0h0a9.9,9.9,0,0,1,0,14L49,35.39,65.51,51.94a9.9,9.9,0,0,1,0,14h0a9.9,9.9,0,0,1-14,0L34.95,49.39l-17,17a9.9,9.9,0,0,1-14,0h0a9.9,9.9,0,0,1,0-14l17-17L4.65,19.14A9.9,9.9,0,0,1,4.65,5.13Z"/><circle class="cls-2" cx="28.76" cy="20.16" r="0.6" transform="translate(-5.83 26.24) rotate(-45)"/><circle class="cls-2" cx="25.68" cy="17.08" r="0.6" transform="translate(-4.56 23.16) rotate(-45)"/><circle class="cls-2" cx="22.6" cy="14" r="0.6" transform="translate(-3.28 20.08) rotate(-45)"/><circle class="cls-2" cx="19.52" cy="10.92" r="0.6" transform="translate(-2.01 17) rotate(-45)"/><circle class="cls-2" cx="16.44" cy="7.85" r="0.6" transform="translate(-0.73 13.92) rotate(-45)"/><circle class="cls-2" cx="52.99" cy="62.16" r="0.6" transform="translate(-28.44 55.68) rotate(-45)"/><circle class="cls-2" cx="49.91" cy="59.08" r="0.6" transform="translate(-27.16 52.6) rotate(-45)"/><circle class="cls-2" cx="46.83" cy="56" r="0.6" transform="translate(-25.88 49.52) rotate(-45)"/><circle class="cls-2" cx="43.75" cy="52.92" r="0.6" transform="translate(-24.61 46.44) rotate(-45)"/><circle class="cls-2" cx="40.67" cy="49.85" r="0.6" transform="translate(-23.33 43.36) rotate(-45)"/></g></svg>