<svg xmlns="http://www.w3.org/2000/svg" viewBox="0 0 76.44 67.85"><defs><style>.cls-1{fill:#6884ad;}.cls-2{fill:#385188;}</style></defs><title>icons</title><g id="Layer_7" data-name="Layer 7"><polygon class="cls-1" points="1.25 2.18 1.25 56.86 16.05 65.44 31.74 56.91 46.17 65.53 62.13 56.91 75.19 65.53 75.19 10.84 62.14 2.18 46.11 10.84 31.73 2.14 16.08 10.84 1.25 2.18"/><path class="cls-2" d="M75.94,66.92,62.09,57.78,46.15,66.39,31.72,57.77,16,66.29.5,57.3V.87L16.09,10,31.75,1.27,46.13,10l16-8.68,13.76,9.14ZM31.76,56l14.43,8.62,16-8.63,12.27,8.1V11.25L62.1,3.05l-16,8.65L31.71,3l-15.65,8.7L2,3.49V56.43l14.06,8.14Z"/><path class="cls-2" d="M62.17,1.6l-16,8.67L31.74,1.56l-15.66,8.7L.75,1.31V57.15L16,66l15.69-8.53L46.15,66.1l16-8.62,13.58,9V10.58Zm-.05,1.17,12.57,8.35V32a4.66,4.66,0,0,0-2.46,1.47c-2,2.14-2.81,6-2.39,11,.28,3.34-.07,5.41-1.1,6.54-1.23,1.33-3.51,1.44-6.6,1.44a3.32,3.32,0,0,1-2.55-.92c-1.45-1.53-1.27-4.79-1.09-8,.06-1.19.13-2.31.11-3.36a3.55,3.55,0,0,0-1-2.64c-1.11-1.06-2.93-1-4.84-1a11.22,11.22,0,0,1-4.39-.44c-1.22-.5-2.1-5.46-1.3-9.65.3-1.6,1.11-4.29,3.07-4.31,1.19,0,2.38,0,3.52,0,3.95.08,7.34.15,8.92-1.39a3.05,3.05,0,0,0,.88-2.27,2.46,2.46,0,0,0-.8-1.89c-1.72-1.58-6-1.21-10.07-.85-1.56.14-3,.26-4.32.29A3.24,3.24,0,0,1,45.53,15c-1-1.26-1-3.33-.87-4.49l1.44.87Zm-46,8.66,8.71-4.84c.22,2.57.25,7.34-1.38,9.09a2,2,0,0,1-1.69.67l-1.65-.11c-2.41-.18-4-.3-5.06.63-.73.65-1.09,1.72-1.16,3.48-.14,3.21-.13,6.8,1.73,8.69a4.53,4.53,0,0,0,3.48,1.25c2.57-.06,4.09.29,4.91,1.15s1,2.07.88,4.08c-.36,5.17-8.06,19.31-9.92,19.31h-.17c-1.84,0-2.5,0-3.09-7.72A12,12,0,0,0,2.33,36.25L2,36.19l-.29-.07V29.92A22,22,0,0,0,4.07,30a9.81,9.81,0,0,0,3.51-.52c2.18-.89,1.81-5.22,1.44-9.4-.06-.64-.11-1.27-.15-1.86A3.06,3.06,0,0,0,7.61,15.9C5.93,14.67,3,15,1.75,15.23V3.05ZM1.75,16.24c1-.19,3.83-.6,5.27.46a2.07,2.07,0,0,1,.85,1.63c0,.6.1,1.23.15,1.88.29,3.28.68,7.78-.82,8.39s-4.39.43-5.45.31ZM62.16,56.32,46.67,64.69V54.07h-1V64.65l-13.43-8,0-14.51h-1l0,14.49L16.06,64.86,1.75,56.58V37.15l.07,0,.29.07a11,11,0,0,1,8.55,9.93c.63,8.17,1.53,8.64,4,8.64h.23c3.1,0,10.59-15.6,10.91-20.24.16-2.3-.21-3.84-1.16-4.84S22,29.2,19,29.27a3.5,3.5,0,0,1-2.75-1c-1.5-1.53-1.58-4.72-1.44-7.94.06-1.45.32-2.33.83-2.78.74-.65,2.16-.55,4.32-.38l1.67.12a3,3,0,0,0,2.48-1C26.34,14,25.92,7.89,25.74,6L31.23,3l0,13.91h1L32.23,3l11.49,7c-.17,1.14-.4,3.94,1,5.69a4.26,4.26,0,0,0,3.57,1.46c1.33,0,2.82-.15,4.39-.29,3.71-.32,7.91-.69,9.31.59a1.48,1.48,0,0,1,.48,1.16,2.06,2.06,0,0,1-.58,1.56c-1.27,1.25-4.63,1.18-8.19,1.11-1.16,0-2.35,0-3.56,0-2,0-3.41,1.84-4,5.12-.79,4.17-.07,10,1.9,10.76a11.91,11.91,0,0,0,4.79.51c1.7,0,3.32-.09,4.13.68a2.63,2.63,0,0,1,.65,1.93c0,1,0,2.12-.11,3.28-.18,3.37-.38,6.85,1.37,8.7a4.32,4.32,0,0,0,3.28,1.24c3.35,0,5.83-.13,7.33-1.76,1.25-1.36,1.67-3.61,1.36-7.3-.39-4.62.39-8.36,2.13-10.26A3.76,3.76,0,0,1,74.69,33V64.6Z"/><path class="cls-2" d="M76.44,67.85,62.07,58.36,46.13,67,31.71,58.35,16,66.87,0,57.58V0L16.09,9.4,31.76.7,46.15,9.4,62.21.72l14.23,9.45ZM2.5,56.14,16.07,64l14.42-7.84,0-14.8h2.5L33,56.2l11.93,7.13v-10h2.5V63.43l14.78-8,11.74,7.75v-29a3.51,3.51,0,0,0-.42.39c-1.6,1.74-2.31,5.28-1.94,9.69.33,3.91-.15,6.34-1.56,7.87-1.71,1.86-4.35,2-7.88,2a5,5,0,0,1-3.82-1.47c-2-2.07-1.76-5.72-1.57-9.25.06-1.16.12-2.24.1-3.23a2,2,0,0,0-.42-1.41c-.58-.56-2.11-.52-3.59-.48a12.44,12.44,0,0,1-5.1-.57c-2.58-1.06-3.12-7.58-2.35-11.6.94-4.95,3.39-5.71,4.77-5.73,1.21,0,2.42,0,3.58,0,3.25.07,6.61.13,7.65-.89a1.3,1.3,0,0,0,.36-1,.73.73,0,0,0-.23-.6c-1.15-1.06-5.53-.68-8.73-.4-1.59.14-3.09.27-4.45.29a5,5,0,0,1-4.16-1.73c-1.44-1.76-1.41-4.35-1.26-5.78L33,4.36l0,13.3h-2.5l0-13.38L26.53,6.46c.22,2.66.36,8-1.85,10.39a3.75,3.75,0,0,1-3.07,1.22L19.94,18c-1.83-.14-3.28-.25-3.77.2-.23.2-.51.76-.58,2.25-.12,2.91-.08,6.06,1.23,7.39a2.78,2.78,0,0,0,2.19.73c3.16-.07,5,.43,6.22,1.69s1.54,2.88,1.36,5.41c-.31,4.46-7.85,20.94-11.66,20.94h-.17c-3.44,0-4.25-1.57-4.84-9.33A10.25,10.25,0,0,0,2.5,38.1Zm0-20.62A12.74,12.74,0,0,1,12.41,47c.54,7,.94,7,2.34,7h.18c1.4-.53,8.8-13.44,9.17-18.61.12-1.75-.1-2.9-.68-3.5s-2-1-4.35-.92a5.27,5.27,0,0,1-4-1.48c-2.06-2.1-2.08-5.87-1.94-9.24.08-2,.52-3.22,1.41-4,1.29-1.15,3.11-1,5.62-.82l1.64.11a1.28,1.28,0,0,0,1.1-.43c1.13-1.21,1.39-4.49,1.26-7.34l-8.05,4.48L2.5,4.36v10c1.66-.2,4-.2,5.55.93a3.83,3.83,0,0,1,1.56,2.92c0,.57.09,1.17.15,1.79.39,4.52.8,9.12-1.9,10.23a10.27,10.27,0,0,1-3.79.58c-.57,0-1.11,0-1.57-.06ZM54,35.85A5.8,5.8,0,0,1,58.16,37a4.26,4.26,0,0,1,1.19,3.17c0,1.06,0,2.17-.1,3.34-.16,2.93-.34,6.17.89,7.47a2.62,2.62,0,0,0,2,.69c2.9,0,5-.09,6-1.19.87-.94,1.17-2.9.91-6-.44-5.18.48-9.3,2.59-11.59a5.53,5.53,0,0,1,2.26-1.53V11.51L62.08,3.64l-16,8.65-.73-.44a4.5,4.5,0,0,0,.76,2.73,2.52,2.52,0,0,0,2.18.81c1.27,0,2.73-.15,4.27-.28,4.46-.39,8.68-.76,10.65,1a3.23,3.23,0,0,1,1,2.45,3.78,3.78,0,0,1-1.11,2.81c-1.8,1.76-5.35,1.69-9.46,1.61-1.17,0-2.33,0-3.5,0-1.48,0-2.13,2.59-2.34,3.7-.81,4.23.2,8.43.86,8.82a10.7,10.7,0,0,0,4.06.38ZM2.5,28.23a11.37,11.37,0,0,0,4.42-.32c1-.41.53-5.65.36-7.63l0-.23c0-.57-.1-1.13-.14-1.66a1.33,1.33,0,0,0-.54-1.07c-.85-.62-2.57-.64-4.08-.43Z"/></g></svg>