<svg xmlns="http://www.w3.org/2000/svg" xmlns:xlink="http://www.w3.org/1999/xlink" viewBox="0 0 67.24 58.83"><defs><style>.cls-1{fill:none;clip-rule:evenodd;}.cls-2{clip-path:url(#clip-path);}.cls-3{fill:#385188;}</style><clipPath id="clip-path"><path class="cls-1" d="M0,54.63a4.19,4.19,0,0,1,4.21-4.2H63a4.2,4.2,0,1,1,0,8.4H4.21A4.19,4.19,0,0,1,0,54.63ZM0,29.42a4.23,4.23,0,0,1,4.21-4.2h42a4.2,4.2,0,1,1,0,8.4h-42A4.2,4.2,0,0,1,0,29.42ZM0,4.2A4.19,4.19,0,0,1,4.21,0H63a4.2,4.2,0,1,1,0,8.4H4.21A4.19,4.19,0,0,1,0,4.2Z"/></clipPath></defs><title>hamburger</title><g id="Layer_7" data-name="Layer 7"><g class="cls-2"><rect class="cls-3" x="-21.01" y="-21.01" width="109.26" height="100.86"/></g></g></svg>