<svg xmlns="http://www.w3.org/2000/svg" viewBox="0 0 101.77 101.77"><defs><style>.cls-1{fill:#6884ad;}.cls-2{fill:#385188;}</style></defs><title>icons</title><g id="Layer_7" data-name="Layer 7"><circle class="cls-1" cx="50.89" cy="50.89" r="48.89"/><path class="cls-2" d="M50.89,100.77a49.89,49.89,0,1,1,49.88-49.89A49.94,49.94,0,0,1,50.89,100.77ZM50.89,3A47.89,47.89,0,1,0,98.77,50.89,47.94,47.94,0,0,0,50.89,3Z"/><path class="cls-2" d="M50.89,100.77a49.89,49.89,0,1,1,49.88-49.89A49.94,49.94,0,0,1,50.89,100.77ZM50.89,3A47.89,47.89,0,1,0,98.77,50.89,47.94,47.94,0,0,0,50.89,3Z"/><path class="cls-2" d="M50.89,101.77a50.89,50.89,0,1,1,50.88-50.89A50.94,50.94,0,0,1,50.89,101.77ZM2,50.89a48.89,48.89,0,0,0,97.77,0A48.89,48.89,0,0,1,2,50.89ZM50.89,4A46.89,46.89,0,1,0,97.77,50.89,46.94,46.94,0,0,0,50.89,4Z"/><polygon class="cls-1" points="55.72 56.47 26.15 75.66 45.34 45.77 75.86 25.48 55.72 56.47"/><path class="cls-2" d="M22.8,79l21.81-34,.17-.12L79.33,22,56.45,57.19ZM46.07,46.48,29.5,72.29,55,55.74,72.39,29Z"/><path class="cls-2" d="M24.47,77.34l20.59-32L77.6,23.72,56,56.89ZM45.71,46.13,27.82,74,55.36,56.1,74.12,27.23Z"/><path class="cls-2" d="M21.11,80.71,44.34,44.63,81.08,20.2,56.72,57.61l-.18.12ZM46.43,46.84,31.17,70.61,54.64,55.38l16-24.64Z"/><polygon class="cls-2" points="45.34 45.77 75.86 25.48 55.72 56.47 45.34 45.77"/><rect class="cls-2" x="49.39" y="1.66" width="3" height="4.4" rx="1.5" ry="1.5"/><path class="cls-2" d="M50.89,7.07a2.5,2.5,0,0,1-2.5-2.5V3.16a2.5,2.5,0,1,1,5,0v1.4A2.5,2.5,0,0,1,50.89,7.07Zm0-4.4a.5.5,0,0,0-.5.5v1.4a.5.5,0,0,0,1,0V3.16A.5.5,0,0,0,50.89,2.66Z"/><rect class="cls-2" x="1.79" y="49.39" width="4.88" height="3" rx="1.5" ry="1.5"/><path class="cls-2" d="M5.17,53.39H3.29a2.5,2.5,0,0,1,0-5H5.17a2.5,2.5,0,1,1,0,5Zm-1.88-3a.5.5,0,1,0,0,1H5.17a.5.5,0,1,0,0-1Z"/><rect class="cls-2" x="49.39" y="95.38" width="3" height="4.88" rx="1.5" ry="1.5"/><path class="cls-2" d="M50.89,101.26a2.5,2.5,0,0,1-2.5-2.5V96.88a2.5,2.5,0,0,1,5,0v1.88A2.5,2.5,0,0,1,50.89,101.26Zm0-4.88a.5.5,0,0,0-.5.5v1.88a.5.5,0,1,0,1,0V96.88A.5.5,0,0,0,50.89,96.38Z"/><rect class="cls-2" x="95.27" y="49.07" width="4.88" height="3" rx="1.5" ry="1.5"/><path class="cls-2" d="M98.64,53.07H96.77a2.5,2.5,0,0,1,0-5h1.88a2.5,2.5,0,1,1,0,5Zm-1.88-3a.5.5,0,0,0,0,1h1.88a.5.5,0,0,0,0-1Z"/></g></svg>