<svg xmlns="http://www.w3.org/2000/svg" viewBox="0 0 101.77 101.77"><defs><style>.cls-1{fill:#adadad;}</style></defs><title>icons</title><g id="Layer_7" data-name="Layer 7"><path class="cls-1" d="M50.88,0a50.89,50.89,0,1,0,50.89,50.89A50.94,50.94,0,0,0,50.88,0Zm2.5,97.69v-.81a2.5,2.5,0,0,0-5,0v.81a46.93,46.93,0,0,1-44.3-44.3H5.17a2.5,2.5,0,0,0,0-5H4.08a46.93,46.93,0,0,1,44.3-44.3v.49a2.5,2.5,0,0,0,5,0V4.08a47,47,0,0,1,44.29,44h-.91a2.5,2.5,0,0,0,0,5h.94A46.87,46.87,0,0,1,53.39,97.69Z"/><path class="cls-1" d="M21.11,80.71l35.43-23,.18-.12L81.08,20.2,44.34,44.63ZM53.8,55.92,31.17,70.61,45.86,47.74Z"/></g></svg>